<?xml version="1.0" encoding="UTF-8" standalone="no"?>
<svg
   width="100%"
   height="100%"
   viewBox="0 0 1280 1150"
   version="1.1"
   xml:space="preserve"
   style="fill-rule:evenodd;clip-rule:evenodd;stroke-linecap:round;stroke-linejoin:round;stroke-miterlimit:1.41421;"
   id="svg14317"
   sodipodi:docname="aruba-ap-105.svg"
   inkscape:version="1.2 (1:1.2+202206011327+fc4e4096c5)"
   xmlns:inkscape="http://www.inkscape.org/namespaces/inkscape"
   xmlns:sodipodi="http://sodipodi.sourceforge.net/DTD/sodipodi-0.dtd"
   xmlns:xlink="http://www.w3.org/1999/xlink"
   xmlns="http://www.w3.org/2000/svg"
   xmlns:svg="http://www.w3.org/2000/svg"><defs
   id="defs14321"><linearGradient
     inkscape:collect="always"
     id="linearGradient21087"><stop
       style="stop-color:#cdc5ba;stop-opacity:1;"
       offset="0"
       id="stop21083" /><stop
       style="stop-color:#776f61;stop-opacity:1;"
       offset="0.5"
       id="stop21091" /></linearGradient><linearGradient
     inkscape:collect="always"
     id="linearGradient4121"><stop
       style="stop-color:#cdc5ba;stop-opacity:1;"
       offset="0"
       id="stop4117" /><stop
       style="stop-color:#f3f3eb;stop-opacity:1;"
       offset="1"
       id="stop4119" /></linearGradient><linearGradient
     inkscape:collect="always"
     xlink:href="#linearGradient4121"
     id="linearGradient4123"
     x1="668.19257"
     y1="302.87421"
     x2="663.34222"
     y2="59.700108"
     gradientUnits="userSpaceOnUse"
     gradientTransform="translate(-2.0801873,-31.114138)" /><linearGradient
     inkscape:collect="always"
     xlink:href="#linearGradient21087"
     id="linearGradient21089"
     x1="678.35376"
     y1="693.82318"
     x2="684.38135"
     y2="1517.345"
     gradientUnits="userSpaceOnUse" /></defs><sodipodi:namedview
   id="namedview14319"
   pagecolor="#ffffff"
   bordercolor="#666666"
   borderopacity="1.0"
   inkscape:showpageshadow="2"
   inkscape:pageopacity="0.0"
   inkscape:pagecheckerboard="0"
   inkscape:deskcolor="#d1d1d1"
   showgrid="false"
   inkscape:zoom="0.41043479"
   inkscape:cx="817.42583"
   inkscape:cy="361.81143"
   inkscape:window-width="1920"
   inkscape:window-height="1021"
   inkscape:window-x="0"
   inkscape:window-y="0"
   inkscape:window-maximized="1"
   inkscape:current-layer="svg14317"
   showguides="false" />
    
<g
   id="g29921"
   transform="matrix(1.0625689,0,0,1.0625689,-38.594089,-4.3304944)"><path
     style="fill:#c2baaf;fill-opacity:1;stroke:none;stroke-width:1px;stroke-linecap:butt;stroke-linejoin:miter;stroke-opacity:1"
     d="m 137.03171,136.92554 c 144.61416,77.34757 270.54153,179.00816 405.3252,372.22377 34.83814,234.32319 -372.09296,442.64104 -405.8288,449.59461 -5.6971,-4.61579 -10.7145,-10.15562 -11.098,-21.99533 90.026,-437.97955 28.3853,-688.15468 11.6016,-799.82305 z"
     id="path15570"
     sodipodi:nodetypes="ccccc" /><path
     style="fill:#c2baaf;fill-opacity:1;stroke:none;stroke-width:1px;stroke-linecap:butt;stroke-linejoin:miter;stroke-opacity:1"
     d="m 1150.5623,145.41683 c -141.981,96.84718 -355.50182,265.76303 -394.23709,363.10586 -4.8235,173.60139 232.55378,412.01673 381.19529,449.32112 1.9108,-2.33643 2.408,-6.8167 1.8914,-9.73024 -46.7096,-263.43591 -41.3587,-584.41793 11.7667,-784.31432 1.5016,-5.6498 0.075,-14.21569 -0.6163,-18.38242 z"
     id="path13981"
     sodipodi:nodetypes="cccssc" /><path
     style="fill:url(#linearGradient4123);fill-opacity:1;stroke:none;stroke-width:1px;stroke-linecap:butt;stroke-linejoin:miter;stroke-opacity:1"
     d="m 137.03171,136.92554 c 163.8547,104.79371 287.7201,235.099 405.3252,372.22377 l 213.9683,-0.62662 c 37.53785,-79.40833 388.84249,-359.37159 394.23709,-363.10586 -2.8779,-6.94853 -4.1225,-11.55015 -12.4676,-15.89914 C 897.99252,4.3907192 431.76971,-10.317571 154.96511,116.80155 c -3.4822,1.59916 -18.1891,14.7119 -17.9334,20.12399 z"
     id="path1024"
     sodipodi:nodetypes="ccccssc" /><path
     style="fill:#827765;fill-opacity:1;stroke:none;stroke-width:1px;stroke-linecap:butt;stroke-linejoin:miter;stroke-opacity:1"
     d="m 482.99461,322.95763 c -14.8693,13.23524 0.046,20.80621 10.1231,13.41788 106.8727,-67.80641 209.5173,-62.54506 308.67336,3.00826 12.90339,9.37208 27.24092,-1.33573 10.77531,-13.94427 -110.88697,-72.4843 -220.69427,-69.83351 -329.57177,-2.48187 z"
     id="path12023"
     sodipodi:nodetypes="ccccc" /><path
     style="fill:#827765;fill-opacity:1;stroke:none;stroke-width:1px;stroke-linecap:butt;stroke-linejoin:miter;stroke-opacity:1"
     d="m 549.53921,404.30316 c -16.1138,12.20033 -1.5179,20.4851 8.7822,11.91318 46.2088,-21.02852 91.0637,-44.33006 177.8014,2.68697 9.9621,7.71085 23.5459,-0.79272 9.0436,-12.6488 -71.8742,-42.20158 -136.1247,-36.8763 -195.6272,-1.95135 z"
     id="path22243"
     sodipodi:nodetypes="ccccc" /><path
     style="fill:#827765;fill-opacity:1;stroke:none;stroke-width:1px;stroke-linecap:butt;stroke-linejoin:miter;stroke-opacity:1"
     d="m 579.98621,447.14719 c -11.9203,5.64977 -6.2738,19.73103 7.6675,12.62232 38.5499,-24.3208 77.1317,-20.82903 115.7341,0.56065 18.2313,8.97901 20.0557,-6.89566 8.3621,-13.16437 -45.7708,-24.41517 -89.6717,-24.15329 -131.7637,-0.0186 z"
     id="path27351"
     sodipodi:nodetypes="ccccc" /><path
     style="fill:url(#linearGradient21089);fill-opacity:1;stroke:none;stroke-width:1px;stroke-linecap:butt;stroke-linejoin:miter;stroke-opacity:1"
     d="m 1127.0869,968.71037 c 7.1648,-5.87331 10.4336,-10.86656 10.4336,-10.86656 C 1070.6014,931.06279 759.5167,724.01772 756.32521,508.52269 l -213.9683,0.62662 c -7.015,179.03151 -207.4559,314.07793 -405.8288,449.59461 204.4246,108.70888 632.19383,160.14198 990.55879,9.96645 z"
     id="path8265"
     sodipodi:nodetypes="cscccc" /><g
     id="g11987"
     transform="translate(-2.0801873,-31.114138)"><path
       style="fill:#97907e;fill-opacity:1;stroke:none;stroke-width:1px;stroke-linecap:butt;stroke-linejoin:miter;stroke-opacity:1"
       d="m 550.37267,973.53396 -20.8741,73.02974 c -1.71881,19.3521 17.87803,18.422 23.08367,7.1658 l 17.48779,-73.10863 c 0.43387,-14.9852 -17.8455,-15.98316 -19.69736,-7.08691 z"
       id="path3108"
       sodipodi:nodetypes="ccccc" /><path
       style="fill:#3d3833;fill-opacity:1;stroke:none;stroke-width:1px;stroke-linecap:butt;stroke-linejoin:miter;stroke-opacity:1"
       d="m 553.54788,977.07564 -19.15518,72.84496 c -1.20789,6.1946 11.43607,8.7859 13.35146,4.5117 l 17.17034,-72.87426 c 1.54559,-7.89181 -9.43683,-10.72712 -11.36662,-4.4824 z"
       id="path3208"
       sodipodi:nodetypes="ccccc" /></g><g
     id="g11993"
     transform="matrix(-0.99880178,-0.04893882,-0.04893882,0.99880178,1329.1626,-0.53826679)"><path
       style="fill:#97907e;fill-opacity:1;stroke:none;stroke-width:1px;stroke-linecap:butt;stroke-linejoin:miter;stroke-opacity:1"
       d="m 550.37267,973.53396 -20.8741,73.02974 c -1.71881,19.3521 17.87803,18.422 23.08367,7.1658 l 17.48779,-73.10863 c 0.43387,-14.9852 -17.8455,-15.98316 -19.69736,-7.08691 z"
       id="path11989"
       sodipodi:nodetypes="ccccc" /><path
       style="fill:#3d3833;fill-opacity:1;stroke:none;stroke-width:1px;stroke-linecap:butt;stroke-linejoin:miter;stroke-opacity:1"
       d="m 553.54788,977.07564 -19.15518,72.84496 c -1.20789,6.1946 11.43607,8.7859 13.35146,4.5117 l 17.17034,-72.87426 c 1.54559,-7.89181 -9.43683,-10.72712 -11.36662,-4.4824 z"
       id="path11991"
       sodipodi:nodetypes="ccccc" /></g><g
     id="g12005"
     transform="rotate(-7.7719846,379.66767,568.44776)"><path
       style="fill:#97907e;fill-opacity:1;stroke:none;stroke-width:1px;stroke-linecap:butt;stroke-linejoin:miter;stroke-opacity:1"
       d="m 550.37267,973.53396 -20.8741,73.02974 c -1.71881,19.3521 17.87803,18.422 23.08367,7.1658 l 17.48779,-73.10863 c 0.43387,-14.9852 -17.8455,-15.98316 -19.69736,-7.08691 z"
       id="path12001"
       sodipodi:nodetypes="ccccc" /><path
       style="fill:#3d3833;fill-opacity:1;stroke:none;stroke-width:1px;stroke-linecap:butt;stroke-linejoin:miter;stroke-opacity:1"
       d="m 553.54788,977.07564 -19.15518,72.84496 c -1.20789,6.1946 11.43607,8.7859 13.35146,4.5117 l 17.17034,-72.87426 c 1.54559,-7.89181 -9.43683,-10.72712 -11.36662,-4.4824 z"
       id="path12003"
       sodipodi:nodetypes="ccccc" /></g><g
     id="g29879"><path
       style="fill:#827765;fill-opacity:1;stroke:none;stroke-width:1px;stroke-linecap:butt;stroke-linejoin:miter;stroke-opacity:1"
       d="m 517.35481,363.0505 c -12.2775,7.10213 -5.2158,21.70774 8.0814,12.21451 80.5946,-49.00475 161.6543,-44.37167 243.07482,2.73248 16.56828,11.45451 24.49668,-6.22105 7.4068,-14.39074 -85.71172,-49.09628 -171.85062,-54.29837 -258.56302,-0.55625 z"
       id="path18308"
       sodipodi:nodetypes="ccccc" /><g
       id="g28201"
       transform="translate(-2.0801873,-31.114138)"><path
         style="fill:#827765;fill-opacity:1;stroke:none;stroke-width:1px;stroke-linecap:butt;stroke-linejoin:miter;stroke-opacity:1"
         d="m 485.07475,827.11841 c -14.86934,-13.23524 0.0462,-20.80621 10.12314,-13.41788 106.87261,67.80641 209.5173,62.54506 308.67332,-3.00826 12.90339,-9.37208 27.24092,1.33573 10.77531,13.94427 -110.88697,72.4843 -220.69424,69.83351 -329.57177,2.48187 z"
         id="path28181"
         sodipodi:nodetypes="ccccc" /><path
         style="fill:#827765;fill-opacity:1;stroke:none;stroke-width:1px;stroke-linecap:butt;stroke-linejoin:miter;stroke-opacity:1"
         d="m 519.4349,787.02554 c -12.27745,-7.10213 -5.21571,-21.70774 8.08149,-12.21451 80.59457,49.00475 161.65426,44.37167 243.07478,-2.73248 16.56828,-11.45451 24.49668,6.22105 7.4068,14.39074 -85.71177,49.09628 -171.85064,54.29837 -258.56307,0.55625 z"
         id="path28183"
         sodipodi:nodetypes="ccccc" /><path
         style="fill:#827765;fill-opacity:1;stroke:none;stroke-width:1px;stroke-linecap:butt;stroke-linejoin:miter;stroke-opacity:1"
         d="m 551.61939,745.77288 c -16.11383,-12.20033 -1.51797,-20.4851 8.78218,-11.91318 46.20877,21.02852 91.06369,44.33006 177.80134,-2.68697 9.96215,-7.71085 23.54594,0.79272 9.04367,12.6488 -71.87426,42.20158 -136.12476,36.8763 -195.62719,1.95135 z"
         id="path28185"
         sodipodi:nodetypes="ccccc" /><path
         style="fill:#827765;fill-opacity:1;stroke:none;stroke-width:1px;stroke-linecap:butt;stroke-linejoin:miter;stroke-opacity:1"
         d="m 582.06636,702.92885 c -11.9203,-5.64977 -6.27385,-19.73103 7.66753,-12.62232 38.54987,24.3208 77.1317,20.82903 115.73411,-0.56065 18.23123,-8.97901 20.05563,6.89566 8.36201,13.16437 -45.77077,24.41517 -89.67168,24.15329 -131.76365,0.0186 z"
         id="path28187"
         sodipodi:nodetypes="ccccc" /><path
         style="fill:#827765;fill-opacity:1;stroke:none;stroke-width:1px;stroke-linecap:butt;stroke-linejoin:miter;stroke-opacity:1"
         d="m 582.06636,702.92885 c -11.9203,-5.64977 -6.27385,-19.73103 7.66753,-12.62232 38.54987,24.3208 77.1317,20.82903 115.73411,-0.56065 18.23123,-8.97901 20.05563,6.89566 8.36201,13.16437 -45.77077,24.41517 -89.67168,24.15329 -131.76365,0.0186 z"
         id="path8267"
         sodipodi:nodetypes="ccccc" /></g><g
       id="g8293"
       transform="translate(-2.0801873,-31.114138)"><path
         style="fill:#827765;fill-opacity:1;stroke:none;stroke-width:1px;stroke-linecap:butt;stroke-linejoin:miter;stroke-opacity:1"
         d="m 371.40579,389.42137 c 8.70258,-10.67029 14.59108,2.09116 11.44613,5.61587 -85.45962,117.70509 -81.65773,262.79909 -5.54213,383.14514 5.15717,10.87778 -6.92742,14.66394 -11.28612,6.44958 -83.40444,-122.50948 -79.09639,-283.70095 5.38212,-395.21059 z"
         id="path8269"
         sodipodi:nodetypes="ccccc" /><path
         style="fill:#827765;fill-opacity:1;stroke:none;stroke-width:1px;stroke-linecap:butt;stroke-linejoin:miter;stroke-opacity:1"
         d="m 410.14791,426.34849 c 7.65851,-8.7611 15.38271,2.61863 9.52656,9.14981 -66.30933,94.87772 -53.22953,227.40202 -6.1498,299.79834 11.45451,16.56828 -3.5269,24.20746 -11.69659,7.11758 -65.98359,-100.90821 -49.57935,-246.13509 8.31983,-316.06573 z"
         id="path8271"
         sodipodi:nodetypes="ccccc" /><path
         style="fill:#827765;fill-opacity:1;stroke:none;stroke-width:1px;stroke-linecap:butt;stroke-linejoin:miter;stroke-opacity:1"
         d="m 446.40116,466.04217 c 7.42828,-7.38843 16.87837,2.73206 9.55482,11.39244 -20.50174,32.1605 -55.41677,111.37429 -4.78813,217.42854 8.31163,11.58126 -1.61525,22.63775 -11.30407,6.88491 -47.81421,-96.68884 -27.53155,-183.537 6.53738,-235.70589 z"
         id="path8273"
         sodipodi:nodetypes="ccccc" /><path
         style="fill:#827765;fill-opacity:1;stroke:none;stroke-width:1px;stroke-linecap:butt;stroke-linejoin:miter;stroke-opacity:1"
         d="m 474.10439,529.2647 c 5.64977,-11.9203 19.59933,-7.64606 12.49062,6.29532 -11.06595,32.70624 -13.33898,59.90527 -1.53652,102.83557 4.89273,14.48615 -9.48728,17.10659 -13.1353,3.63439 -9.10825,-34.74223 -12.16747,-60.25243 2.1812,-112.76528 z"
         id="path8277"
         sodipodi:nodetypes="ccccc" /><path
         style="fill:#827765;fill-opacity:1;stroke:none;stroke-width:1px;stroke-linecap:butt;stroke-linejoin:miter;stroke-opacity:1"
         d="m 333.8707,351.65425 c 7.12673,-7.66249 14.49272,3.7851 10.38274,7.98142 -117.14156,155.90808 -83.56527,346.30499 -9.53145,451.55666 7.60221,11.39771 -5.29698,15.43157 -9.65568,7.21721 -83.58529,-111.7523 -109.5639,-319.02238 8.80439,-466.75529 z"
         id="path8286"
         sodipodi:nodetypes="ccccc" /></g><g
       id="g8305"
       transform="matrix(-0.99965554,-0.02624503,-0.02624503,0.99965554,1306.5697,-15.40183)"><path
         style="fill:#827765;fill-opacity:1;stroke:none;stroke-width:1px;stroke-linecap:butt;stroke-linejoin:miter;stroke-opacity:1"
         d="m 371.40579,389.42137 c 8.70258,-10.67029 14.59108,2.09116 11.44613,5.61587 -85.45962,117.70509 -81.65773,262.79909 -5.54213,383.14514 5.15717,10.87778 -6.92742,14.66394 -11.28612,6.44958 -83.40444,-122.50948 -79.09639,-283.70095 5.38212,-395.21059 z"
         id="path8295"
         sodipodi:nodetypes="ccccc" /><path
         style="fill:#827765;fill-opacity:1;stroke:none;stroke-width:1px;stroke-linecap:butt;stroke-linejoin:miter;stroke-opacity:1"
         d="m 410.14791,426.34849 c 7.65851,-8.7611 15.38271,2.61863 9.52656,9.14981 -66.30933,94.87772 -53.22953,227.40202 -6.1498,299.79834 11.45451,16.56828 -3.5269,24.20746 -11.69659,7.11758 -65.98359,-100.90821 -49.57935,-246.13509 8.31983,-316.06573 z"
         id="path8297"
         sodipodi:nodetypes="ccccc" /><path
         style="fill:#827765;fill-opacity:1;stroke:none;stroke-width:1px;stroke-linecap:butt;stroke-linejoin:miter;stroke-opacity:1"
         d="m 446.40116,466.04217 c 7.42828,-7.38843 16.87837,2.73206 9.55482,11.39244 -20.50174,32.1605 -55.41677,111.37429 -4.78813,217.42854 8.31163,11.58126 -1.61525,22.63775 -11.30407,6.88491 -47.81421,-96.68884 -27.53155,-183.537 6.53738,-235.70589 z"
         id="path8299"
         sodipodi:nodetypes="ccccc" /><path
         style="fill:#827765;fill-opacity:1;stroke:none;stroke-width:1px;stroke-linecap:butt;stroke-linejoin:miter;stroke-opacity:1"
         d="m 474.10439,529.2647 c 5.64977,-11.9203 19.59933,-7.64606 12.49062,6.29532 -11.06595,32.70624 -13.33898,59.90527 -1.53652,102.83557 4.89273,14.48615 -9.48728,17.10659 -13.1353,3.63439 -9.10825,-34.74223 -12.16747,-60.25243 2.1812,-112.76528 z"
         id="path8301"
         sodipodi:nodetypes="ccccc" /><path
         style="fill:#827765;fill-opacity:1;stroke:none;stroke-width:1px;stroke-linecap:butt;stroke-linejoin:miter;stroke-opacity:1"
         d="m 333.8707,351.65425 c 7.12673,-7.66249 14.49272,3.7851 10.38274,7.98142 -117.14156,155.90808 -83.56527,346.30499 -9.53145,451.55666 7.60221,11.39771 -5.29698,15.43157 -9.65568,7.21721 -83.58529,-111.7523 -109.5639,-319.02238 8.80439,-466.75529 z"
         id="path8303"
         sodipodi:nodetypes="ccccc" /></g><ellipse
       style="fill:#858481;fill-opacity:1;stroke-width:2.37669;stroke-linecap:round;stroke-linejoin:round"
       id="path1078"
       cx="646.30774"
       cy="554.92426"
       rx="79.696327"
       ry="80.016449" /><g
       id="g11999"
       transform="matrix(-0.97665697,-0.21480494,-0.21480494,0.97665697,1424.5391,115.50196)"><path
         style="fill:#97907e;fill-opacity:1;stroke:none;stroke-width:1px;stroke-linecap:butt;stroke-linejoin:miter;stroke-opacity:1"
         d="m 550.37267,973.53396 -20.8741,73.02974 c -1.71881,19.3521 17.87803,18.422 23.08367,7.1658 l 17.48779,-73.10863 c 0.43387,-14.9852 -17.8455,-15.98316 -19.69736,-7.08691 z"
         id="path11995"
         sodipodi:nodetypes="ccccc" /><path
         style="fill:#3d3833;fill-opacity:1;stroke:none;stroke-width:1px;stroke-linecap:butt;stroke-linejoin:miter;stroke-opacity:1"
         d="m 553.54788,977.07564 -19.15518,72.84496 c -1.20789,6.1946 11.43607,8.7859 13.35146,4.5117 l 17.17034,-72.87426 c 1.54559,-7.89181 -9.43683,-10.72712 -11.36662,-4.4824 z"
         id="path11997"
         sodipodi:nodetypes="ccccc" /></g></g></g></svg>
