<?xml version="1.0" encoding="UTF-8" standalone="no"?>
<svg
   width="100%"
   height="100%"
   viewBox="0 0 1280 1150"
   version="1.1"
   xml:space="preserve"
   style="fill-rule:evenodd;clip-rule:evenodd;stroke-linecap:round;stroke-linejoin:round;stroke-miterlimit:1.41421;"
   id="svg78"
   sodipodi:docname="tp-link-tl-archer-c50-v1.svg"
   inkscape:version="1.2 (1:1.2.1+202207142221+cd75a1ee6d)"
   xmlns:inkscape="http://www.inkscape.org/namespaces/inkscape"
   xmlns:sodipodi="http://sodipodi.sourceforge.net/DTD/sodipodi-0.dtd"
   xmlns="http://www.w3.org/2000/svg"
   xmlns:svg="http://www.w3.org/2000/svg"><defs
   id="defs53">
        
        
        
        
        
        
        
        
        
        
        
    </defs><sodipodi:namedview
   id="namedview80"
   pagecolor="#ffffff"
   bordercolor="#666666"
   borderopacity="1.0"
   inkscape:showpageshadow="2"
   inkscape:pageopacity="0.0"
   inkscape:pagecheckerboard="0"
   inkscape:deskcolor="#d1d1d1"
   showgrid="false"
   inkscape:zoom="0.29022122"
   inkscape:cx="663.28713"
   inkscape:cy="484.11346"
   inkscape:window-width="1920"
   inkscape:window-height="1021"
   inkscape:window-x="0"
   inkscape:window-y="0"
   inkscape:window-maximized="1"
   inkscape:current-layer="svg78" />
    
<g
   id="g51321"
   transform="matrix(1.0642958,0,0,1.0642958,-39.095035,-39.125536)"><path
     d="m 1085.4745,89.101443 c -29.93,129.603337 -59.8076,259.064587 -88.64633,390.642797 -10.6315,48.50511 -17.8244,97.72951 -24.9815,146.97815 L 949.37705,733.14081 896.6594,726.90908 1046.3791,79.067831 Z"
     style="clip-rule:evenodd;fill:#9c9da5;fill-opacity:1;fill-rule:evenodd;stroke:none;stroke-width:1.05712px;stroke-linecap:round;stroke-linejoin:round;stroke-miterlimit:1.41421"
     id="path3251" /><path
     d="m 1067.6187,62.768989 c -24.0295,-4.108297 -28.1389,20.990582 -9.1878,42.193541 l -100.83763,450.57331 -20.95122,54.57504 -34.5111,117.47977 38.25379,4.51632 26.88533,-169.35652 102.09933,-451.05372 c 19.4641,-19.470666 28.616,-44.371719 -1.7507,-48.927741"
     style="clip-rule:evenodd;fill:#d7d7d7;fill-opacity:1;fill-rule:evenodd;stroke:none;stroke-width:1.05712px;stroke-linecap:round;stroke-linejoin:round;stroke-miterlimit:1.41421"
     id="path3253" /><path
     d="m 190.95769,91.454903 c 29.93004,129.603337 59.80759,259.064587 88.6463,390.642797 10.6315,48.50511 17.82436,97.72951 24.98154,146.97815 l 22.4696,106.41842 52.71764,-6.23173 -149.7197,-647.841249 z"
     style="clip-rule:evenodd;fill:#9c9da5;fill-opacity:1;fill-rule:evenodd;stroke:none;stroke-width:1.05712px;stroke-linecap:round;stroke-linejoin:round;stroke-miterlimit:1.41421"
     id="path94" /><path
     d="m 208.81348,65.122449 c 24.02955,-4.108297 28.13891,20.990582 9.18782,42.193541 l 100.83756,450.57331 20.95126,54.57504 34.51111,117.47977 -38.2538,4.51632 L 309.16207,565.10391 207.06281,114.05019 C 187.59872,94.579524 178.44685,69.678471 208.81348,65.122449"
     style="clip-rule:evenodd;fill:#d7d7d7;fill-opacity:1;fill-rule:evenodd;stroke:none;stroke-width:1.05712px;stroke-linecap:round;stroke-linejoin:round;stroke-miterlimit:1.41421"
     id="path96" /><path
     d="m 189.65216,1000.5094 -0.47941,20.9324 c 303.59246,18.7616 533.11967,24.9032 897.79415,-2.9512 l -0.4794,-17.9073 c -296.05196,-26.56115 -606.85191,-25.19645 -896.83534,-0.074 z"
     style="clip-rule:evenodd;fill:#2b344d;fill-opacity:1;fill-rule:evenodd;stroke:none;stroke-width:0.958813px;stroke-linecap:round;stroke-linejoin:round;stroke-miterlimit:1.41421"
     id="path12"
     sodipodi:nodetypes="cccccc" /><path
     d="m 1086.9669,1018.4906 c -311.4183,25.2557 -598.24079,19.2746 -897.79415,2.9512 v 30.2155 c 281.11209,41.1005 578.85834,41.8736 897.79415,-0.3176 z"
     style="clip-rule:evenodd;fill:#161825;fill-opacity:1;fill-rule:evenodd;stroke:#000000;stroke-width:0.958813px;stroke-linecap:round;stroke-linejoin:round;stroke-miterlimit:1.41421"
     id="path14"
     sodipodi:nodetypes="ccccc" /><path
     d="m 290.71231,1064.6642 11.37782,18.5483 c 265.6008,12.4685 440.57977,8.8036 674.09824,0 l 9.288,-19.8193 c -232.44944,21.9094 -450.04946,29.5342 -694.76406,1.271 z"
     style="clip-rule:evenodd;fill:#b7b6bd;fill-opacity:1;fill-rule:evenodd;stroke:#000000;stroke-width:0.958813px;stroke-linecap:round;stroke-linejoin:round;stroke-miterlimit:1.41421"
     id="path16"
     sodipodi:nodetypes="ccccc" /><path
     d="m 189.65216,1000.5094 15.98043,-86.56609 c 269.9936,-22.4536 532.8348,-26.9011 863.95441,-0.4124 l 16.9005,87.05239 c -491.43645,-43.65409 -896.83534,-0.074 -896.83534,-0.074 z"
     style="clip-rule:evenodd;fill:#505a75;fill-opacity:1;fill-rule:evenodd;stroke:#000000;stroke-width:0.958813px;stroke-linecap:round;stroke-linejoin:round;stroke-miterlimit:1.41421"
     id="path18"
     sodipodi:nodetypes="ccccc" /><path
     d="m 209.34121,895.11891 c 288.45713,-22.03375 564.72854,-22.00319 856.48109,0.1153 l -15.8696,-76.69827 c -280.86885,-31.31317 -553.27522,-26.0746 -825.55987,0.11432 z"
     style="clip-rule:evenodd;fill:#505a75;fill-opacity:1;fill-rule:evenodd;stroke:#000000;stroke-width:0.958813px;stroke-linecap:round;stroke-linejoin:round;stroke-miterlimit:1.41421"
     id="path20"
     sodipodi:nodetypes="ccccc" /><path
     d="m 227.99839,802.12317 c 276.01449,-23.2257 546.69039,-25.6286 819.61811,-0.23243 l -14.9167,-72.33641 C 773.51037,704.68086 507.82355,706.41413 242.02287,729.44425 Z"
     style="clip-rule:evenodd;fill:#505a75;fill-opacity:1;fill-rule:evenodd;stroke:#000000;stroke-width:0.942382px;stroke-linecap:round;stroke-linejoin:round;stroke-miterlimit:1.41421"
     id="path22"
     sodipodi:nodetypes="ccccc" /><path
     d="M 1065.8638,895.51231 C 778.98482,873.73105 493.56574,873.3568 209.25718,895.25441 l -0.0937,18.39626 c 261.2144,-20.43257 570.06212,-25.65103 857.45562,-0.58476 z"
     style="clip-rule:evenodd;fill:#141418;fill-opacity:1;fill-rule:evenodd;stroke:#000000;stroke-width:0.958813px;stroke-linecap:round;stroke-linejoin:round;stroke-miterlimit:1.41421"
     id="path24"
     sodipodi:nodetypes="ccccc" /><path
     d="m 227.99839,802.12317 -0.0728,16.18848 c 274.82779,-24.62045 544.16122,-26.30976 819.44951,-0.51106 l -0.2954,-15.32688 C 778.08915,778.03137 502.809,775.26518 227.99839,802.12317 Z"
     style="clip-rule:evenodd;fill:#141418;fill-opacity:1;fill-rule:evenodd;stroke:#000000;stroke-width:0.958813px;stroke-linecap:round;stroke-linejoin:round;stroke-miterlimit:1.41421"
     id="path26"
     sodipodi:nodetypes="ccccc" /><g
     id="g3249"
     transform="translate(-68.761861,-118.27399)"
     style="stroke:#a3d05f;stroke-opacity:1"><path
       d="m 543.89322,1116.7063 c -8.96084,0.042 -9.82473,20.2366 3.33936,20.5951 14.1915,0.3797 12.19119,-20.3894 3.30543,-20.5951"
       style="fill:none;stroke:#a3d05f;stroke-width:3.12407px;stroke-opacity:1"
       id="path11" /><path
       d="m 546.95923,1128.583 v -15.6193"
       style="fill:none;stroke:#a3d05f;stroke-width:2.87644px;stroke-opacity:1"
       id="path13" /><g
       id="g23"
       transform="matrix(0.86151035,0,0,1.0671063,136.27321,67.232172)"
       style="stroke:#a3d05f;stroke-opacity:1">
            <path
   d="m 532.5,1001.56 c 3.037,-3.06 6.083,-2.457 9.134,0"
   style="fill:none;stroke:#a3d05f;stroke-width:3px;stroke-opacity:1"
   id="path17" />
            <path
   d="m 529.218,994.65 c 5.176,-3.942 10.31,-3.82 15.405,0"
   style="fill:none;stroke:#a3d05f;stroke-width:3px;stroke-opacity:1"
   id="path19" />
            <path
   d="m 526.539,988.847 c 6.781,-4.897 13.694,-5.464 20.791,0"
   style="fill:none;stroke:#a3d05f;stroke-width:3px;stroke-opacity:1"
   id="path21" />
        </g><g
       transform="matrix(0.86151035,0,0,1.0671063,218.93271,66.363004)"
       id="g41"
       style="stroke:#a3d05f;stroke-opacity:1">
            <path
   d="m 626.349,996.053 h -3.276 V 985.75 h 18.143 v 10.303 h -3.033"
   style="fill:none;stroke:#a3d05f;stroke-width:3px;stroke-opacity:1"
   id="path37" />
            <path
   d="m 626.295,1003.22 h 11.042 -4.985 v -7.799"
   style="fill:none;stroke:#a3d05f;stroke-width:3px;stroke-opacity:1"
   id="path39" />
        </g><g
       transform="matrix(0.86151035,0,0,1.0671063,0.96961963,67.603783)"
       id="g53"
       style="stroke:#a3d05f;stroke-opacity:1">
            <path
   d="m 813.094,996.529 c -1.722,2.532 -1.722,4.821 0,6.861 12.399,-1.4 20.816,-6.311 25.825,-14.21 -0.916,-1.909 -2.421,-2.725 -4.348,-2.755"
   style="fill:none;stroke:#a3d05f;stroke-width:3px;stroke-opacity:1"
   id="path49" />
            <path
   d="m 817.984,994.321 c -0.444,-8.394 2.219,-12.453 12.981,-5.218"
   style="fill:none;stroke:#a3d05f;stroke-width:3px;stroke-opacity:1"
   id="path51" />
        </g><g
       transform="matrix(0.86151035,0,0,1.0671063,124.92138,68.036304)"
       id="g59"
       style="stroke:#a3d05f;stroke-opacity:1">
            <path
   d="m 862.264,985.285 c -3.15,5.488 -1.575,10.729 1.854,15.875 l 2.507,-4.943"
   style="fill:none;stroke:#a3d05f;stroke-width:3px;stroke-opacity:1"
   id="path55" />
            <path
   d="m 874.847,1000.02 c 3.145,-7.28 2.087,-12.851 -2.979,-16.788 l -2.223,6.525"
   style="fill:none;stroke:#a3d05f;stroke-width:3px;stroke-opacity:1"
   id="path57" />
        </g><g
       transform="matrix(0.8716362,0,0,0.92681333,23.833839,209.08411)"
       id="g65"
       style="stroke:#a3d05f;stroke-opacity:1">
            <path
   d="m 901.628,988.999 c -0.719,13.951 20.96,8.804 17.735,-1.962"
   style="fill:none;stroke:#a3d05f;stroke-width:3px;stroke-opacity:1"
   id="path61" />
            <path
   d="m 910.391,1004.16 v -23.495 l 3.577,6.141 h -8.248 l 4.671,-6.141"
   style="fill:none;stroke:#a3d05f;stroke-width:3px;stroke-opacity:1"
   id="path63" />
        </g><g
       id="g3225"
       transform="matrix(1.2023166,0,0,1.0945881,7.0947454,40.617297)"
       style="stroke:#a3d05f;stroke-opacity:1">
            <path
   d="m 532.5,1001.56 c 3.037,-3.06 6.083,-2.457 9.134,0"
   style="fill:none;stroke:#a3d05f;stroke-width:3px;stroke-opacity:1"
   id="path3219" />
            <path
   d="m 529.218,994.65 c 5.176,-3.942 10.31,-3.82 15.405,0"
   style="fill:none;stroke:#a3d05f;stroke-width:3px;stroke-opacity:1"
   id="path3221" />
            <path
   d="m 526.539,988.847 c 6.781,-4.897 13.694,-5.464 20.791,0"
   style="fill:none;stroke:#a3d05f;stroke-width:3px;stroke-opacity:1"
   id="path3223" />
        </g></g></g></svg>
