<?xml version="1.0" encoding="UTF-8" standalone="no"?>
<svg
   width="100%"
   height="100%"
   viewBox="0 0 1280 1150"
   version="1.1"
   xml:space="preserve"
   style="fill-rule:evenodd;clip-rule:evenodd;stroke-linecap:round;stroke-linejoin:round;stroke-miterlimit:1.41421;"
   id="svg40398"
   inkscape:version="1.2 (1:1.2+202206011327+fc4e4096c5)"
   xmlns:inkscape="http://www.inkscape.org/namespaces/inkscape"
   xmlns:sodipodi="http://sodipodi.sourceforge.net/DTD/sodipodi-0.dtd"
   xmlns:xlink="http://www.w3.org/1999/xlink"
   xmlns="http://www.w3.org/2000/svg"
   xmlns:svg="http://www.w3.org/2000/svg"><sodipodi:namedview
   id="namedview40400"
   pagecolor="#ffffff"
   bordercolor="#666666"
   borderopacity="1.0"
   inkscape:showpageshadow="2"
   inkscape:pageopacity="0.0"
   inkscape:pagecheckerboard="0"
   inkscape:deskcolor="#d1d1d1"
   showgrid="false"
   inkscape:zoom="0.58044244"
   inkscape:cx="720.14032"
   inkscape:cy="660.7029"
   inkscape:window-width="1920"
   inkscape:window-height="1021"
   inkscape:window-x="0"
   inkscape:window-y="0"
   inkscape:window-maximized="1"
   inkscape:current-layer="svg40398" />
    
<g
   id="g41337"
   transform="translate(-30.689915,-35.898025)"><path
     style="fill:#e9e9e9;fill-opacity:1;stroke:none;stroke-width:1.3839px;stroke-linecap:butt;stroke-linejoin:miter;stroke-opacity:1"
     d="M 263.5175,804.93309 242.19368,971.9321 c -6.0037,51.6353 35.55114,58.2663 97.81966,61.7828 h 674.12596 c 63.7392,0.1715 93.0793,-19.3756 84.441,-60.69401 l -28.4789,-171.30498 c -10.3533,-21.00211 -10.1473,-57.87125 -100.22635,-59.28698 l -570.66644,-1.483 c -83.1375,-2.25539 -127.86459,11.23201 -135.69111,63.98716 z"
     id="path18971"
     sodipodi:nodetypes="ccccccccc" /><path
     style="fill:#dcdcdc;fill-opacity:1;stroke:none;stroke-width:1.3839px;stroke-linecap:butt;stroke-linejoin:miter;stroke-opacity:1"
     d="m 560.49585,729.14535 15.56841,-2.6e-4 3.39463,-516.95893 -15.08381,0.0256 z"
     id="path19453"
     sodipodi:nodetypes="ccccc" /><path
     style="fill:#b1b1b1;fill-opacity:1;stroke:none;stroke-width:1.3839px;stroke-linecap:butt;stroke-linejoin:miter;stroke-opacity:1"
     d="m 576.42885,683.93765 c 8.05015,8.01271 14.41581,10.24529 19.23841,7.1831 v 50.30543 h -11.10353 l -0.0733,-14.30671 -8.42618,2.02588 z"
     id="path25239"
     sodipodi:nodetypes="ccccccc" /><path
     style="fill:#dbdbdb;fill-opacity:1;stroke:none;stroke-width:1.3839px;stroke-linecap:butt;stroke-linejoin:miter;stroke-opacity:1"
     d="m 560.84069,683.19262 c -10.71676,9.43545 -14.88038,10.48411 -19.94783,7.92813 v 50.30543 h 11.10353 l 0.0734,-14.30671 8.42618,2.02588 z"
     id="path25241"
     sodipodi:nodetypes="ccccccc" /><path
     style="fill:#5f5f5f;fill-opacity:1;stroke:none;stroke-width:1.3839px;stroke-linecap:butt;stroke-linejoin:miter;stroke-opacity:1"
     d="m 552.06967,727.11947 8.42618,2.02588 15.56841,-2.6e-4 8.42618,-2.02562 0.0734,14.30671 h -32.56733 z"
     id="path25243" /><path
     style="fill:#e7e7e7;fill-opacity:1;stroke:none;stroke-width:1.3839px;stroke-linecap:butt;stroke-linejoin:miter;stroke-opacity:1"
     d="m 564.37508,212.21179 0.6682,-33.31268 14.4156,0.0371 v 33.24986 z"
     id="path28051" /><path
     style="fill:#c6c6c7;fill-opacity:1;stroke:none;stroke-width:1.3839px;stroke-linecap:butt;stroke-linejoin:miter;stroke-opacity:1"
     d="m 579.45888,178.93624 c 4.37091,8.03628 8.38528,16.77783 8.49147,33.24992 l 0.31268,460.13544 c 3.48231,9.46794 4.8644,10.51994 7.40425,14.3426 v 4.45655 c -6.84332,4.22587 -13.95141,-2.3586 -19.23841,-7.1831 l 3.03002,-471.75155 z"
     id="path29640"
     sodipodi:nodetypes="cccccccc" /><path
     style="fill:#c6c6c7;fill-opacity:1;stroke:none;stroke-width:1.3839px;stroke-linecap:butt;stroke-linejoin:miter;stroke-opacity:1"
     d="m 565.04328,178.89911 c -4.37091,8.03628 -9.78499,16.81496 -9.89117,33.28705 l -6.855,460.13544 c -3.48231,9.46794 -4.8644,10.51994 -7.40425,14.3426 v 4.45655 c 7.85769,3.98678 14.05249,-3.24841 19.94783,-7.92813 l 3.53439,-470.98083 z"
     id="path31160"
     sodipodi:nodetypes="cccccccc" /><path
     style="fill:#dcdcdc;fill-opacity:1;stroke:none;stroke-width:1.3839px;stroke-linecap:butt;stroke-linejoin:miter;stroke-opacity:1"
     d="m 771.61599,729.14535 -15.56842,-2.6e-4 -3.39464,-516.95893 15.0838,0.0256 z"
     id="path33820"
     sodipodi:nodetypes="ccccc" /><path
     style="fill:#b1b1b1;fill-opacity:1;stroke:none;stroke-width:1.3839px;stroke-linecap:butt;stroke-linejoin:miter;stroke-opacity:1"
     d="m 755.683,683.93765 c -8.05015,8.01271 -14.41582,10.24529 -19.23844,7.1831 v 50.30543 h 11.10356 l 0.0732,-14.30671 8.42617,2.02588 z"
     id="path33822"
     sodipodi:nodetypes="ccccccc" /><path
     style="fill:#dbdbdb;fill-opacity:1;stroke:none;stroke-width:1.3839px;stroke-linecap:butt;stroke-linejoin:miter;stroke-opacity:1"
     d="m 771.27113,683.19262 c 10.71677,9.43545 14.88039,10.48411 19.94786,7.92813 v 50.30543 h -11.10356 l -0.0732,-14.30671 -8.42616,2.02588 z"
     id="path33824"
     sodipodi:nodetypes="ccccccc" /><path
     style="fill:#5f5f5f;fill-opacity:1;stroke:none;stroke-width:1.3839px;stroke-linecap:butt;stroke-linejoin:miter;stroke-opacity:1"
     d="m 780.04215,727.11947 -8.42616,2.02588 -15.56842,-2.6e-4 -8.42618,-2.02562 -0.0732,14.30671 h 32.56731 z"
     id="path33826" /><path
     style="fill:#e7e7e7;fill-opacity:1;stroke:none;stroke-width:1.3839px;stroke-linecap:butt;stroke-linejoin:miter;stroke-opacity:1"
     d="m 767.73673,212.21179 -0.66819,-33.31268 -14.41557,0.0371 v 33.24986 z"
     id="path33828" /><path
     style="fill:#c6c6c7;fill-opacity:1;stroke:none;stroke-width:1.3839px;stroke-linecap:butt;stroke-linejoin:miter;stroke-opacity:1"
     d="m 752.65297,178.93624 c -4.37091,8.03628 -8.38531,16.77783 -8.4915,33.24992 L 743.8487,672.3216 c -3.48231,9.46794 -4.86442,10.51994 -7.40425,14.3426 v 4.45655 c 6.84332,4.22587 13.95141,-2.3586 19.2384,-7.1831 L 752.65282,212.1861 Z"
     id="path33830"
     sodipodi:nodetypes="cccccccc" /><path
     style="fill:#c6c6c7;fill-opacity:1;stroke:none;stroke-width:1.3839px;stroke-linecap:butt;stroke-linejoin:miter;stroke-opacity:1"
     d="m 767.06854,178.89911 c 4.37092,8.03628 9.785,16.81496 9.89118,33.28705 l 6.85499,460.13544 c 3.4823,9.46794 4.8644,10.51994 7.40428,14.3426 v 4.45655 c -7.85772,3.98678 -14.0525,-3.24841 -19.94786,-7.92813 l -3.5344,-470.98083 z"
     id="path33832"
     sodipodi:nodetypes="cccccccc" /><path
     style="fill:#d2d2d2;fill-opacity:1;stroke:none;stroke-width:1.3839px;stroke-linecap:butt;stroke-linejoin:miter;stroke-opacity:1"
     d="m 363.77429,729.14535 -18.43409,-522.75977 13.6369,-0.88483 20.22021,523.17092 z"
     id="path33834"
     sodipodi:nodetypes="ccccc" /><path
     style="fill:#b4b4b4;fill-opacity:1;stroke:none;stroke-width:1.3839px;stroke-linecap:butt;stroke-linejoin:miter;stroke-opacity:1"
     d="m 377.72943,683.15642 c 6.24008,8.26041 13.06661,10.61974 20.37224,8.15791 l 1.10694,49.6316 -10.37385,-0.23434 -0.32173,-14.22391 -9.31572,2.18399 z"
     id="path35147"
     sodipodi:nodetypes="ccccccc" /><path
     style="fill:#f0f0f0;fill-opacity:1;stroke:none;stroke-width:1.3839px;stroke-linecap:butt;stroke-linejoin:miter;stroke-opacity:1"
     d="m 362.41255,684.09818 c -5.55798,8.73398 -11.86669,10.13664 -19.34613,8.26826 l 1.62924,50.13498 10.71367,-0.93689 -0.26529,-13.61927 8.63025,1.20009 z"
     id="path35563"
     sodipodi:nodetypes="ccccccc" /><path
     style="fill:#5f5f5f;fill-opacity:1;stroke:none;stroke-width:1.3839px;stroke-linecap:butt;stroke-linejoin:miter;stroke-opacity:1"
     d="m 355.14404,727.94526 8.63025,1.20009 15.42302,-0.47389 9.31572,-2.18399 0.32173,14.22391 -33.42543,0.85294 z"
     id="path36324" /><path
     style="fill:#f1f1f1;fill-opacity:1;stroke:none;stroke-width:1.3839px;stroke-linecap:butt;stroke-linejoin:miter;stroke-opacity:1"
     d="m 343.06642,692.36644 v -5.54406 c 8.74682,-10.18258 7.58499,-21.04522 8.00347,-31.79939 L 338.29618,207.03458 c 2.05619,-14.10985 4.18298,-19.07423 6.29545,-25.89477 l 17.82091,502.95837 c -2.95294,4.24663 -6.47966,10.71367 -19.34612,8.26826 z"
     id="path36809"
     sodipodi:nodetypes="ccccccc" /><path
     style="fill:#cccccd;fill-opacity:1;stroke:none;stroke-width:1.3839px;stroke-linecap:butt;stroke-linejoin:miter;stroke-opacity:1"
     d="m 358.9771,205.50075 -0.41823,-26.7463 c 9.32923,15.01967 9.05818,26.52745 10.45657,38.64595 l 18.77125,452.2014 9.72175,15.72052 0.59322,5.99201 c -11.32896,3.43124 -17.38571,-4.44028 -20.37224,-8.15791 z"
     id="path36951"
     sodipodi:nodetypes="cccccccc" /><path
     style="fill:#eaeaea;fill-opacity:1;stroke:none;stroke-width:1.3839px;stroke-linecap:butt;stroke-linejoin:miter;stroke-opacity:1"
     d="m 358.9771,205.50075 -0.41823,-26.7463 H 345.3402 l -0.74857,2.38536 0.74857,25.24577 z"
     id="path37436" /><path
     style="fill:#d2d2d2;fill-opacity:1;stroke:none;stroke-width:1.3839px;stroke-linecap:butt;stroke-linejoin:miter;stroke-opacity:1"
     d="m 967.43069,729.14535 18.43409,-522.75977 -13.63689,-0.88483 -20.2202,523.17092 z"
     id="path38343"
     sodipodi:nodetypes="ccccc" /><path
     style="fill:#b4b4b4;fill-opacity:1;stroke:none;stroke-width:1.3839px;stroke-linecap:butt;stroke-linejoin:miter;stroke-opacity:1"
     d="m 953.47556,683.15642 c -6.24008,8.26041 -13.06661,10.61974 -20.37225,8.15791 l -1.10693,49.6316 10.37385,-0.23434 0.32168,-14.22391 9.31572,2.18399 z"
     id="path38345"
     sodipodi:nodetypes="ccccccc" /><path
     style="fill:#f0f0f0;fill-opacity:1;stroke:none;stroke-width:1.3839px;stroke-linecap:butt;stroke-linejoin:miter;stroke-opacity:1"
     d="m 968.79245,684.09818 c 5.55797,8.73398 11.86668,10.13664 19.34614,8.26826 l -1.62924,50.13498 -10.71369,-0.93689 0.26518,-13.61927 -8.63026,1.20009 z"
     id="path38347"
     sodipodi:nodetypes="ccccccc" /><path
     style="fill:#5f5f5f;fill-opacity:1;stroke:none;stroke-width:1.3839px;stroke-linecap:butt;stroke-linejoin:miter;stroke-opacity:1"
     d="m 976.06095,727.94526 -8.63026,1.20009 -15.423,-0.47389 -9.31573,-2.18399 -0.32167,14.22391 33.42543,0.85294 z"
     id="path38349" /><path
     style="fill:#f1f1f1;fill-opacity:1;stroke:none;stroke-width:1.3839px;stroke-linecap:butt;stroke-linejoin:miter;stroke-opacity:1"
     d="m 988.13859,692.36644 v -5.54406 c -8.74686,-10.18258 -7.58501,-21.04522 -8.0035,-31.79939 L 992.9088,207.03458 c -2.05616,-14.10985 -4.18298,-19.07423 -6.29543,-25.89477 l -17.82092,502.95837 c 2.95293,4.24663 6.47964,10.71367 19.34614,8.26826 z"
     id="path38351"
     sodipodi:nodetypes="ccccccc" /><path
     style="fill:#cccccd;fill-opacity:1;stroke:none;stroke-width:1.3839px;stroke-linecap:butt;stroke-linejoin:miter;stroke-opacity:1"
     d="m 972.22789,205.50075 0.41844,-26.7463 c -9.32922,15.01967 -9.05818,26.52745 -10.4566,38.64595 l -18.7712,452.2014 -9.72176,15.72052 -0.59326,5.99201 c 11.329,3.43124 17.3857,-4.44028 20.37226,-8.15791 z"
     id="path38353"
     sodipodi:nodetypes="cccccccc" /><path
     style="fill:#eaeaea;fill-opacity:1;stroke:none;stroke-width:1.3839px;stroke-linecap:butt;stroke-linejoin:miter;stroke-opacity:1"
     d="m 972.22789,205.50075 0.41844,-26.7463 H 985.865 l 0.74858,2.38536 -0.74858,25.24577 z"
     id="path38355" /><path
     style="fill:#878787;fill-opacity:1;stroke:none;stroke-width:1.3839px;stroke-linecap:butt;stroke-linejoin:miter;stroke-opacity:1"
     d="m 241.61832,977.58805 -1.07406,27.91485 c 13.19876,38.8654 56.81053,36.4022 79.55062,37.5387 h 707.33932 c 59.749,-1.6938 77.5455,-22.3942 72.6249,-53.38675 -0.5026,26.48065 -25.3949,40.78545 -72.3792,44.06115 H 338.96016 c -24.68632,-1.8588 -102.23706,-1.1468 -97.34184,-56.12795 z"
     id="path38357"
     sodipodi:nodetypes="cccccccc" /><ellipse
     style="fill:#00ff00;fill-opacity:1;stroke:none;stroke-width:178.731;stroke-linecap:round;stroke-linejoin:round;stroke-dasharray:714.92, 357.462, 178.731, 357.462"
     id="path39170"
     cx="638.72327"
     cy="949.16278"
     rx="6.5900612"
     ry="4.6442919" /><ellipse
     style="fill:#00ff00;fill-opacity:1;stroke:none;stroke-width:178.731;stroke-linecap:round;stroke-linejoin:round;stroke-dasharray:714.92, 357.462, 178.731, 357.462"
     id="ellipse39172"
     cx="702.82434"
     cy="949.16278"
     rx="6.5900612"
     ry="4.6442919" /></g></svg>
